HIERARCHY
ROOT newVegas:Hips
{
	OFFSET 0.000000 96.479958 0.000000
	CHANNELS 6 Xposition Yposition Zposition Xrotation Yrotation Zrotation
	JOINT newVegas:Pelvis
	{
		OFFSET 0.000000 0.000000 0.000000
		CHANNELS 3 Xrotation Yrotation Zrotation
		JOINT newVegas:LeftUpLeg
		{
			OFFSET 18.735201 -5.666702 -4.541200
			CHANNELS 3 Xrotation Yrotation Zrotation
			JOINT newVegas:LeftLeg
			{
				OFFSET -0.021200 -31.938179 0.493100
				CHANNELS 3 Xrotation Yrotation Zrotation
				JOINT newVegas:LeftFoot
				{
					OFFSET 0.021200 -31.938179 -4.336299
					CHANNELS 3 Xrotation Yrotation Zrotation
					JOINT newVegas:LeftToeBase
					{
						OFFSET 0.943001 -26.722000 15.023500
						CHANNELS 3 Xrotation Yrotation Zrotation
						End Site
						{
							OFFSET 0.000000 30.670183 0.000000
						}
					}
				}
				JOINT newVegas:Left_PantLeg
				{
					OFFSET 0.663870 -9.044666 -1.108900
					CHANNELS 3 Xrotation Yrotation Zrotation
					End Site
					{
						OFFSET 1.415995 20.635357 0.000000
					}
				}
			}
		}
		JOINT newVegas:RightUpLeg
		{
			OFFSET -18.735201 -5.666702 -4.541200
			CHANNELS 3 Xrotation Yrotation Zrotation
			JOINT newVegas:RightLeg
			{
				OFFSET 0.018946 -31.938133 0.493100
				CHANNELS 3 Xrotation Yrotation Zrotation
				JOINT newVegas:RightFoot
				{
					OFFSET -0.018946 -31.938126 -4.336299
					CHANNELS 3 Xrotation Yrotation Zrotation
					JOINT newVegas:RightToeBase
					{
						OFFSET -0.943001 -26.722004 15.023500
						CHANNELS 3 Xrotation Yrotation Zrotation
						End Site
						{
							OFFSET 0.000000 30.670187 0.000000
						}
					}
				}
				JOINT newVegas:Right_PantLeg
				{
					OFFSET -0.661674 -9.044716 -1.108900
					CHANNELS 3 Xrotation Yrotation Zrotation
					End Site
					{
						OFFSET -1.415958 20.635269 0.000000
					}
				}
			}
		}
	}
	JOINT newVegas:Spine
	{
		OFFSET 0.000000 10.199997 -0.299500
		CHANNELS 3 Xrotation Yrotation Zrotation
		JOINT newVegas:Spine1
		{
			OFFSET 0.000000 11.900002 -1.516600
			CHANNELS 3 Xrotation Yrotation Zrotation
			JOINT newVegas:Spine2
			{
				OFFSET 0.000000 13.600006 -2.842500
				CHANNELS 3 Xrotation Yrotation Zrotation
				JOINT newVegas:Neck
				{
					OFFSET 0.000000 9.624100 -2.890100
					CHANNELS 3 Xrotation Yrotation Zrotation
					JOINT newVegas:Head
					{
						OFFSET 0.000000 14.068802 -1.351900
						CHANNELS 3 Xrotation Yrotation Zrotation
						JOINT newVegas:Hair_Back
						{
							OFFSET 0.000000 3.231903 -17.524799
							CHANNELS 3 Xrotation Yrotation Zrotation
							End Site
							{
								OFFSET 0.000000 19.849884 0.000000
							}
						}
						JOINT newVegas:Hair_Front
						{
							OFFSET 0.000000 31.260406 4.573800
							CHANNELS 3 Xrotation Yrotation Zrotation
							JOINT newVegas:Hair_Front1
							{
								OFFSET 0.000000 2.284103 11.993300
								CHANNELS 3 Xrotation Yrotation Zrotation
								JOINT newVegas:Hair_Front2
								{
									OFFSET 0.000000 2.284103 11.993300
									CHANNELS 3 Xrotation Yrotation Zrotation
									End Site
									{
										OFFSET 0.000000 12.208862 0.000000
									}
								}
							}
						}
						JOINT newVegas:Jowel
						{
							OFFSET 0.000000 -7.458206 6.864100
							CHANNELS 3 Xrotation Yrotation Zrotation
							End Site
							{
								OFFSET 0.000000 19.849884 0.000000
							}
						}
					}
				}
				JOINT newVegas:LeftShoulder
				{
					OFFSET 15.263000 10.923401 -0.547700
					CHANNELS 3 Xrotation Yrotation Zrotation
					JOINT newVegas:LeftArm
					{
						OFFSET 25.438599 -2.830597 -13.032500
						CHANNELS 3 Xrotation Yrotation Zrotation
						JOINT newVegas:LeftForeArm
						{
							OFFSET 29.960503 0.000000 0.000000
							CHANNELS 3 Xrotation Yrotation Zrotation
							JOINT newVegas:LeftHand
							{
								OFFSET 27.849251 0.000000 0.000000
								CHANNELS 3 Xrotation Yrotation Zrotation
								JOINT newVegas:LeftHandThumb1
								{
									OFFSET 4.487587 -3.305161 6.305391
									CHANNELS 3 Xrotation Yrotation Zrotation
									JOINT newVegas:LeftHandThumb2
									{
										OFFSET 5.480453 -3.164139 3.164143
										CHANNELS 3 Xrotation Yrotation Zrotation
										JOINT newVegas:LeftHandThumb3
										{
											OFFSET 5.159721 -2.978973 2.978967
											CHANNELS 3 Xrotation Yrotation Zrotation
											End Site
											{
												OFFSET 2.494507 5.926697 1.738678
											}
										}
									}
								}
								JOINT newVegas:LeftHandIndex1
								{
									OFFSET 18.578728 -0.527832 5.208049
									CHANNELS 3 Xrotation Yrotation Zrotation
									JOINT newVegas:LeftHandIndex2
									{
										OFFSET 3.192009 0.000000 0.000000
										CHANNELS 3 Xrotation Yrotation Zrotation
										JOINT newVegas:LeftHandIndex3
										{
											OFFSET 3.835129 0.000000 0.000000
											CHANNELS 3 Xrotation Yrotation Zrotation
											End Site
											{
												OFFSET -0.034599 3.816971 0.371180
											}
										}
									}
								}
								JOINT newVegas:LeftHandMiddle1
								{
									OFFSET 18.476105 0.000000 0.000000
									CHANNELS 3 Xrotation Yrotation Zrotation
									JOINT newVegas:LeftHandMiddle2
									{
										OFFSET 3.324875 0.000000 0.000000
										CHANNELS 3 Xrotation Yrotation Zrotation
										JOINT newVegas:LeftHandMiddle3
										{
											OFFSET 4.596550 0.000000 0.000000
											CHANNELS 3 Xrotation Yrotation Zrotation
											End Site
											{
												OFFSET 0.057701 4.578827 0.399218
											}
										}
									}
								}
								JOINT newVegas:LeftHandRing1
								{
									OFFSET 17.732719 0.121887 -4.201567
									CHANNELS 3 Xrotation Yrotation Zrotation
									JOINT newVegas:LeftHandRing2
									{
										OFFSET 2.733170 0.000000 0.000000
										CHANNELS 3 Xrotation Yrotation Zrotation
										JOINT newVegas:LeftHandRing3
										{
											OFFSET 3.178268 0.000000 0.000000
											CHANNELS 3 Xrotation Yrotation Zrotation
											End Site
											{
												OFFSET 0.119102 3.170624 0.185394
											}
										}
									}
								}
								JOINT newVegas:LeftHandPinky1
								{
									OFFSET 15.989624 -0.606689 -7.535461
									CHANNELS 3 Xrotation Yrotation Zrotation
									JOINT newVegas:LeftHandPinky2
									{
										OFFSET 2.538986 0.000000 0.000000
										CHANNELS 3 Xrotation Yrotation Zrotation
										JOINT newVegas:LeftHandPinky3
										{
											OFFSET 2.593102 0.000000 0.000000
											CHANNELS 3 Xrotation Yrotation Zrotation
											End Site
											{
												OFFSET -0.150902 2.584198 0.152708
											}
										}
									}
								}
							}
							JOINT newVegas:Left_Sleeve
							{
								OFFSET 0.267448 -0.649796 0.577675
								CHANNELS 3 Xrotation Yrotation Zrotation
								End Site
								{
									OFFSET 0.000000 15.991241 0.000000
								}
							}
							JOINT newVegas:Left_CapeC
							{
								OFFSET 15.715958 -8.608795 -6.935905
								CHANNELS 3 Xrotation Yrotation Zrotation
								JOINT newVegas:Left_CapeC1
								{
									OFFSET 0.000000 -8.688499 0.000000
									CHANNELS 3 Xrotation Yrotation Zrotation
									End Site
									{
										OFFSET 0.000000 8.688499 0.000000
									}
								}
							}
						}
						JOINT newVegas:Left_CapeB
						{
							OFFSET 26.118385 -8.608795 -7.079235
							CHANNELS 3 Xrotation Yrotation Zrotation
							JOINT newVegas:Left_CapeB1
							{
								OFFSET 0.000000 -8.688499 0.000000
								CHANNELS 3 Xrotation Yrotation Zrotation
								End Site
								{
									OFFSET 0.000000 8.688499 0.000000
								}
							}
						}
						JOINT newVegas:Left_CapeA
						{
							OFFSET 5.115639 -8.608795 -10.395809
							CHANNELS 3 Xrotation Yrotation Zrotation
							JOINT newVegas:Left_CapeA1
							{
								OFFSET 0.000000 -8.688499 0.000000
								CHANNELS 3 Xrotation Yrotation Zrotation
								End Site
								{
									OFFSET 0.000000 8.688499 0.000000
								}
							}
						}
					}
				}
				JOINT newVegas:RightShoulder
				{
					OFFSET -15.263000 10.923401 -0.547700
					CHANNELS 3 Xrotation Yrotation Zrotation
					JOINT newVegas:RightArm
					{
						OFFSET -25.438599 -2.830597 -13.032500
						CHANNELS 3 Xrotation Yrotation Zrotation
						JOINT newVegas:RightForeArm
						{
							OFFSET -29.960503 0.000000 0.000000
							CHANNELS 3 Xrotation Yrotation Zrotation
							JOINT newVegas:RightHand
							{
								OFFSET -27.849251 0.000000 0.000000
								CHANNELS 3 Xrotation Yrotation Zrotation
								JOINT newVegas:RightHandThumb1
								{
									OFFSET -4.487587 -3.305161 6.305391
									CHANNELS 3 Xrotation Yrotation Zrotation
									JOINT newVegas:RightHandThumb2
									{
										OFFSET -5.480453 -3.164139 3.164143
										CHANNELS 3 Xrotation Yrotation Zrotation
										JOINT newVegas:RightHandThumb3
										{
											OFFSET -5.159721 -2.978973 2.978967
											CHANNELS 3 Xrotation Yrotation Zrotation
											End Site
											{
												OFFSET -2.494507 5.926697 1.738678
											}
										}
									}
								}
								JOINT newVegas:RightHandIndex1
								{
									OFFSET -18.578728 -0.527832 5.208049
									CHANNELS 3 Xrotation Yrotation Zrotation
									JOINT newVegas:RightHandIndex2
									{
										OFFSET -3.192009 0.000000 0.000000
										CHANNELS 3 Xrotation Yrotation Zrotation
										JOINT newVegas:RightHandIndex3
										{
											OFFSET -3.835129 0.000000 0.000000
											CHANNELS 3 Xrotation Yrotation Zrotation
											End Site
											{
												OFFSET 0.034599 3.816971 0.371180
											}
										}
									}
								}
								JOINT newVegas:RightHandMiddle1
								{
									OFFSET -18.476105 0.000000 0.000000
									CHANNELS 3 Xrotation Yrotation Zrotation
									JOINT newVegas:RightHandMiddle2
									{
										OFFSET -3.324875 0.000000 0.000000
										CHANNELS 3 Xrotation Yrotation Zrotation
										JOINT newVegas:RightHandMiddle3
										{
											OFFSET -4.596550 0.000000 0.000000
											CHANNELS 3 Xrotation Yrotation Zrotation
											End Site
											{
												OFFSET -0.057701 4.578827 0.399218
											}
										}
									}
								}
								JOINT newVegas:RightHandRing1
								{
									OFFSET -17.732719 0.121887 -4.201567
									CHANNELS 3 Xrotation Yrotation Zrotation
									JOINT newVegas:RightHandRing2
									{
										OFFSET -2.733170 0.000000 0.000000
										CHANNELS 3 Xrotation Yrotation Zrotation
										JOINT newVegas:RightHandRing3
										{
											OFFSET -3.178268 0.000000 0.000000
											CHANNELS 3 Xrotation Yrotation Zrotation
											End Site
											{
												OFFSET -0.119102 3.170624 0.185394
											}
										}
									}
								}
								JOINT newVegas:RightHandPinky1
								{
									OFFSET -15.989624 -0.606689 -7.535461
									CHANNELS 3 Xrotation Yrotation Zrotation
									JOINT newVegas:RightHandPinky2
									{
										OFFSET -2.538986 0.000000 0.000000
										CHANNELS 3 Xrotation Yrotation Zrotation
										JOINT newVegas:RightHandPinky3
										{
											OFFSET -2.593102 0.000000 0.000000
											CHANNELS 3 Xrotation Yrotation Zrotation
											End Site
											{
												OFFSET 0.150902 2.584198 0.152708
											}
										}
									}
								}
							}
							JOINT newVegas:Right_CapeC
							{
								OFFSET -15.715958 -8.608795 -6.935905
								CHANNELS 3 Xrotation Yrotation Zrotation
								JOINT newVegas:Right_CapeC1
								{
									OFFSET 0.000000 -8.688499 0.000000
									CHANNELS 3 Xrotation Yrotation Zrotation
									End Site
									{
										OFFSET 0.000000 8.688499 0.000000
									}
								}
							}
							JOINT newVegas:Right_Sleeve
							{
								OFFSET -0.267448 -0.649994 0.577675
								CHANNELS 3 Xrotation Yrotation Zrotation
								End Site
								{
									OFFSET 0.000000 15.991302 0.000000
								}
							}
						}
						JOINT newVegas:Right_CapeA
						{
							OFFSET -5.115540 -8.608795 -10.395824
							CHANNELS 3 Xrotation Yrotation Zrotation
							JOINT newVegas:Right_CapeA1
							{
								OFFSET 0.000000 -8.688499 0.000000
								CHANNELS 3 Xrotation Yrotation Zrotation
								End Site
								{
									OFFSET 0.000000 8.688499 0.000000
								}
							}
						}
						JOINT newVegas:Right_CapeB
						{
							OFFSET -26.118187 -8.608795 -7.079266
							CHANNELS 3 Xrotation Yrotation Zrotation
							JOINT newVegas:Right_CapeB1
							{
								OFFSET 0.000000 -8.688499 0.000000
								CHANNELS 3 Xrotation Yrotation Zrotation
								End Site
								{
									OFFSET 0.000000 8.688499 0.000000
								}
							}
						}
					}
				}
				JOINT newVegas:Left_Collar
				{
					OFFSET 18.625099 8.655502 8.828100
					CHANNELS 3 Xrotation Yrotation Zrotation
					JOINT newVegas:Left_Collar1
					{
						OFFSET 14.783401 10.540405 -1.259500
						CHANNELS 3 Xrotation Yrotation Zrotation
						End Site
						{
							OFFSET 0.000000 18.199875 0.000000
						}
					}
				}
				JOINT newVegas:Collar_Back
				{
					OFFSET 0.000000 15.630707 -20.132601
					CHANNELS 3 Xrotation Yrotation Zrotation
					End Site
					{
						OFFSET 0.000000 22.523010 0.000000
					}
				}
				JOINT newVegas:Left_Peck
				{
					OFFSET 17.239599 -5.132599 25.482599
					CHANNELS 3 Xrotation Yrotation Zrotation
					End Site
					{
						OFFSET 0.000000 22.523010 0.000000
					}
				}
				JOINT newVegas:Right_Peck
				{
					OFFSET -17.239599 -5.132202 25.482599
					CHANNELS 3 Xrotation Yrotation Zrotation
					End Site
					{
						OFFSET 0.000000 22.523010 0.000000
					}
				}
				JOINT newVegas:Right_Collar
				{
					OFFSET -18.625099 8.655792 8.828100
					CHANNELS 3 Xrotation Yrotation Zrotation
					JOINT newVegas:Right_Collar1
					{
						OFFSET -14.783401 10.539993 -1.259500
						CHANNELS 3 Xrotation Yrotation Zrotation
						End Site
						{
							OFFSET 0.000000 18.199631 0.000000
						}
					}
				}
			}
		}
		JOINT newVegas:Belly
		{
			OFFSET 0.000000 -6.540398 9.014299
			CHANNELS 3 Xrotation Yrotation Zrotation
			End Site
			{
				OFFSET 0.000000 11.566666 0.000000
			}
		}
	}
	JOINT newVegas:ElvisFacialAnim_Joint
	{
		OFFSET 1.000000 -95.330101 -8.825800
		CHANNELS 3 Xrotation Yrotation Zrotation
		End Site
		{
			OFFSET 0.000000 35.315800 0.000000
		}
	}
}
MOTION
Frames: 4
Frame Time: 0.016667
0.878099 78.433945 17.431446 0.276800 -29.959580 -1.975941 0.000000 0.000000 -0.000000 -52.414605 -4.572804 23.706144 73.205810 -1.262856 0.065065 -20.312414 -6.834241 -14.935431 0.000000 -0.000000 0.000000 0.000002 0.000001 -0.000000 -11.733789 -14.463569 -32.409490 52.882504 -5.283999 -7.461999 -15.314689 -10.449360 26.151891 -0.000000 0.000001 0.000000 0.000001 0.000001 -0.000005 12.062035 8.976083 -5.955424 2.723682 1.552889 -1.611382 2.746779 1.530460 -1.591251 0.075640 1.885360 0.202726 0.075637 1.885360 0.202722 0.000000 -0.000000 -0.000000 0.075646 1.885309 0.202734 0.075711 1.885446 0.202705 -0.000001 0.000001 -0.000000 0.000000 -0.000000 -0.000000 0.920476 1.300391 -6.093184 -59.606398 1.454202 -47.058815 0.000180 -109.149811 0.000174 1.999414 -7.850086 -14.416077 -6.141215 -11.690801 -6.761679 9.914098 42.595512 3.409854 0.000001 0.000002 -0.000004 0.255310 3.378219 -45.814327 5.654098 5.847751 -88.067455 0.000000 -0.000002 0.000001 -0.461474 3.841588 -39.722679 6.450735 5.820343 -95.892864 -0.000002 -0.000000 -0.000001 0.469730 4.966808 -39.799441 8.181032 5.368592 -113.502977 -0.000001 -0.000002 0.000000 -3.762425 9.063708 -45.253818 5.342501 5.828972 -85.005324 -0.000001 -0.000002 0.000000 0.000003 -0.000004 -0.000000 0.000003 -0.000004 -0.000000 0.000002 -0.000004 0.000000 0.000000 -0.000004 0.000001 -0.000000 -0.000004 0.000001 0.000000 -0.000004 0.000001 -0.000000 -0.000005 0.000001 2.590443 21.406221 -4.318640 -39.313469 17.241003 46.560399 -0.000005 113.312476 0.000002 -14.981735 10.510287 -8.958502 -7.341103 13.749669 7.412330 9.855739 -44.489120 -3.903267 -0.000000 0.000003 -0.000000 -0.124375 -2.384781 45.108868 4.500596 -4.654545 88.071184 -0.000001 -0.000003 -0.000000 -0.761633 -2.932901 39.031078 5.133878 -4.632741 95.881656 0.000001 0.000001 0.000000 0.154751 -4.068799 39.122661 6.509733 -4.273573 113.462870 -0.000000 -0.000003 -0.000001 -4.198882 -8.025524 44.637779 4.252896 -4.639593 85.014805 0.000000 0.000005 -0.000000 0.000004 -0.000002 -0.000001 0.000003 -0.000002 -0.000001 0.000004 -0.000002 -0.000001 -0.000000 -0.000001 0.000001 -0.000000 0.000000 0.000000 -0.000000 -0.000001 0.000001 0.000000 0.000000 0.000002 0.000002 0.000001 0.000001 0.000002 0.000001 0.000001 0.000002 0.000001 0.000001 0.000002 0.000001 0.000001 0.000002 0.000001 0.000001 0.000002 0.000001 0.000001 0.000002 0.000001 0.000001 -0.000000 -0.000001 0.000000 0.000000 0.000000 -0.000000 
0.824810 78.256226 16.453981 -0.346681 -31.729497 -1.911484 0.000000 0.000002 0.000000 -51.618195 -4.442753 24.710209 73.117339 -0.832411 -0.425536 -20.036602 -6.625085 -15.345255 0.000000 -0.000000 0.000000 0.000000 0.000000 0.000001 -11.741543 -14.229557 -32.820930 54.018962 -5.220514 -6.778906 -17.069094 -12.752355 27.152444 -0.000001 0.000000 -0.000001 0.000003 0.000001 0.000002 12.099154 8.763696 -5.729745 2.734886 1.491815 -1.567835 2.758106 1.469819 -1.547381 0.145196 2.016257 0.125396 0.145194 2.016260 0.125400 0.000001 0.000000 0.000000 0.145193 2.016212 0.125408 0.145178 2.016351 0.125382 -0.000003 -0.000000 0.000001 0.000001 0.000000 0.000000 0.919441 1.163409 -5.967903 -60.124448 1.960622 -46.784163 0.000188 -108.853141 0.000185 2.167994 -7.474104 -14.181535 -6.141216 -11.690798 -6.761681 9.914099 42.595512 3.409867 0.000003 -0.000002 -0.000003 0.255311 3.378225 -45.814327 5.654093 5.847752 -88.067455 0.000003 -0.000000 0.000001 -0.461475 3.841589 -39.722676 6.450732 5.820340 -95.892864 0.000002 -0.000002 0.000000 0.469728 4.966810 -39.799444 8.181032 5.368591 -113.502984 -0.000003 0.000003 0.000002 -3.762426 9.063713 -45.253811 5.342499 5.828973 -85.005324 0.000003 -0.000002 0.000003 -0.000001 -0.000001 0.000001 -0.000001 -0.000001 0.000001 -0.000002 -0.000001 0.000002 0.000001 0.000002 0.000001 0.000001 0.000001 0.000001 0.000001 0.000002 0.000001 0.000001 -0.000000 0.000001 2.580095 21.227863 -4.233259 -40.248870 17.716350 48.393915 0.000039 112.648227 -0.000047 -15.571928 11.037982 -9.454321 -7.341099 13.749670 7.412323 9.855739 -44.489117 -3.903267 -0.000005 -0.000006 0.000000 -0.124373 -2.384778 45.108861 4.500593 -4.654549 88.071184 -0.000001 0.000003 0.000002 -0.761630 -2.932899 39.031075 5.133884 -4.632741 95.881656 -0.000001 0.000003 0.000001 0.154752 -4.068796 39.122664 6.509728 -4.273576 113.462870 -0.000000 -0.000003 -0.000000 -4.198877 -8.025520 44.637779 4.252891 -4.639592 85.014805 0.000002 -0.000002 0.000000 -0.000000 0.000002 0.000000 -0.000001 -0.000002 -0.000002 -0.000000 0.000001 0.000000 -0.000000 0.000004 0.000001 -0.000000 0.000005 0.000001 -0.000000 0.000004 0.000001 0.000000 0.000005 0.000002 0.000002 -0.000002 0.000000 0.000002 -0.000002 0.000000 0.000002 -0.000002 0.000000 0.000002 -0.000002 0.000000 0.000002 -0.000002 0.000000 0.000002 -0.000002 0.000000 0.000002 -0.000002 0.000000 -0.000002 0.000000 0.000000 0.000000 0.000002 0.000000 
0.743066 78.082893 15.440638 -0.887742 -33.296848 -1.790306 0.000000 -0.000003 0.000000 -50.965806 -4.273447 25.624906 72.901737 -0.460329 -0.878390 -19.588868 -6.474573 -15.671068 0.000000 -0.000001 -0.000000 -0.000001 -0.000001 0.000003 -11.523811 -14.071140 -32.626557 54.723083 -5.205889 -6.730992 -18.956504 -15.401283 28.255794 0.000001 0.000001 -0.000002 0.000000 -0.000001 -0.000003 12.094119 8.530626 -5.520124 2.734735 1.427240 -1.530577 2.757619 1.406167 -1.509497 0.230015 2.133438 0.042931 0.230036 2.133430 0.042942 0.000000 0.000002 0.000000 0.230023 2.133429 0.042931 0.230030 2.133494 0.042919 -0.000003 0.000000 0.000000 0.000000 0.000002 -0.000000 0.848222 1.234092 -5.801385 -60.427373 2.491306 -46.713067 0.000273 -108.401024 0.000279 2.365839 -7.630699 -14.447783 -6.141217 -11.690802 -6.761679 9.914102 42.595512 3.409862 0.000004 0.000000 0.000003 0.255309 3.378222 -45.814327 5.654098 5.847752 -88.067455 0.000001 0.000000 -0.000001 -0.461474 3.841586 -39.722676 6.450734 5.820340 -95.892864 -0.000001 -0.000002 0.000001 0.469727 4.966809 -39.799437 8.181032 5.368591 -113.502984 -0.000003 0.000001 0.000001 -3.762425 9.063707 -45.253804 5.342504 5.828977 -85.005317 -0.000001 -0.000000 0.000002 -0.000001 -0.000001 -0.000000 -0.000001 -0.000001 -0.000000 -0.000002 -0.000001 0.000000 0.000000 -0.000007 0.000002 0.000000 -0.000007 0.000000 0.000000 -0.000007 0.000002 0.000000 -0.000008 0.000001 2.551280 20.915491 -4.132410 -41.238350 18.236701 50.341438 0.000091 112.007739 -0.000065 -15.687966 11.432316 -9.498022 -7.341101 13.749669 7.412327 9.855741 -44.489120 -3.903264 0.000003 0.000001 -0.000000 -0.124376 -2.384783 45.108868 4.500595 -4.654544 88.071184 0.000001 0.000001 -0.000001 -0.761631 -2.932900 39.031075 5.133884 -4.632743 95.881656 -0.000001 -0.000001 0.000001 0.154752 -4.068799 39.122668 6.509725 -4.273576 113.462870 -0.000000 -0.000001 -0.000000 -4.198882 -8.025521 44.637783 4.252895 -4.639591 85.014805 -0.000000 0.000003 -0.000001 0.000001 0.000003 0.000002 0.000000 -0.000002 -0.000000 0.000001 0.000003 0.000002 -0.000000 -0.000004 -0.000004 -0.000000 -0.000003 -0.000004 -0.000000 -0.000004 -0.000004 0.000000 -0.000003 -0.000003 0.000002 -0.000001 0.000001 0.000002 -0.000001 0.000001 0.000002 -0.000001 0.000001 0.000002 -0.000001 0.000001 0.000002 -0.000001 0.000001 0.000002 -0.000001 0.000001 0.000002 -0.000001 0.000001 -0.000000 -0.000002 0.000000 0.000000 -0.000003 0.000000 
0.645489 77.926102 14.397150 -1.368771 -34.668162 -1.619745 0.000000 0.000002 -0.000000 -50.428506 -4.075199 26.422874 72.529731 -0.124493 -1.282105 -18.957229 -6.387114 -15.923363 0.000000 -0.000001 0.000000 0.000000 -0.000002 -0.000001 -11.380458 -13.917250 -32.347441 55.287690 -5.302363 -6.814241 -21.032956 -17.502747 29.062824 -0.000000 0.000001 0.000000 -0.000001 -0.000001 -0.000003 12.075324 8.287437 -5.312920 2.730772 1.361152 -1.496503 2.753142 1.341179 -1.474810 0.331836 2.238953 -0.038938 0.331837 2.238949 -0.038939 0.000002 0.000002 -0.000000 0.331842 2.238943 -0.038938 0.331847 2.238964 -0.038941 -0.000000 -0.000000 0.000000 0.000002 0.000002 -0.000000 0.768328 1.378884 -5.675010 -60.613926 2.997520 -46.738001 0.000090 -107.926613 0.000094 2.461869 -7.936541 -14.879198 -6.141214 -11.690801 -6.761685 9.914103 42.595512 3.409867 0.000002 0.000003 0.000003 0.255312 3.378223 -45.814327 5.654095 5.847758 -88.067455 -0.000003 0.000000 0.000000 -0.461473 3.841586 -39.722676 6.450733 5.820340 -95.892864 0.000000 -0.000000 -0.000001 0.469728 4.966808 -39.799447 8.181033 5.368593 -113.502984 0.000001 0.000003 0.000001 -3.762425 9.063706 -45.253808 5.342499 5.828971 -85.005324 -0.000001 0.000000 -0.000002 -0.000000 -0.000000 0.000000 -0.000000 -0.000000 0.000000 -0.000001 -0.000000 0.000001 -0.000000 0.000000 0.000002 -0.000000 -0.000001 0.000002 -0.000000 0.000000 0.000002 -0.000001 -0.000002 0.000001 2.521654 20.583210 -4.040480 -42.285397 18.731702 52.282137 -0.000042 111.411327 0.000036 -15.585580 11.755243 -9.399785 -7.341101 13.749667 7.412326 9.855752 -44.489113 -3.903264 0.000000 -0.000007 -0.000001 -0.124374 -2.384780 45.108864 4.500596 -4.654543 88.071184 0.000002 -0.000001 -0.000001 -0.761630 -2.932899 39.031075 5.133879 -4.632745 95.881663 0.000001 -0.000003 0.000000 0.154753 -4.068798 39.122668 6.509732 -4.273580 113.462877 0.000000 0.000001 -0.000001 -4.198878 -8.025524 44.637779 4.252897 -4.639593 85.014805 0.000001 0.000001 0.000001 0.000002 -0.000001 -0.000001 0.000002 -0.000003 0.000002 0.000002 0.000002 -0.000003 0.000001 0.000001 0.000002 0.000001 0.000002 0.000002 0.000001 0.000001 0.000002 0.000001 0.000002 0.000003 0.000001 -0.000001 0.000000 0.000001 -0.000001 0.000000 0.000001 -0.000001 0.000000 0.000001 -0.000001 0.000000 0.000001 -0.000001 0.000000 0.000001 -0.000001 0.000000 0.000001 -0.000001 0.000000 0.000000 -0.000000 0.000000 0.000000 0.000002 -0.000000 
